<svg width="512" height="512" viewBox="0 0 512 512" fill="none" xmlns="http://www.w3.org/2000/svg">
  <defs>
    <linearGradient id="bg" x1="58" y1="42" x2="448" y2="470" gradientUnits="userSpaceOnUse">
      <stop offset="0" stop-color="#0F2E5F" />
      <stop offset="0.52" stop-color="#21478A" />
      <stop offset="1" stop-color="#2B89D9" />
    </linearGradient>
    <radialGradient id="halo" cx="0" cy="0" r="1" gradientUnits="userSpaceOnUse" gradientTransform="translate(402 108) rotate(130) scale(190 190)">
      <stop offset="0" stop-color="#FFFFFF" stop-opacity="0.24" />
      <stop offset="1" stop-color="#FFFFFF" stop-opacity="0" />
    </radialGradient>
    <linearGradient id="panel" x1="132" y1="126" x2="380" y2="400" gradientUnits="userSpaceOnUse">
      <stop offset="0" stop-color="#FFFFFF" />
      <stop offset="1" stop-color="#F4F9FF" />
    </linearGradient>
    <linearGradient id="badge" x1="316" y1="292" x2="406" y2="386" gradientUnits="userSpaceOnUse">
      <stop offset="0" stop-color="#12376C" />
      <stop offset="1" stop-color="#2459A5" />
    </linearGradient>
  </defs>

  <rect x="24" y="24" width="464" height="464" rx="112" fill="url(#bg)" />
  <circle cx="398" cy="110" r="132" fill="url(#halo)" />

  <path d="M132 136H380" stroke="white" stroke-opacity="0.08" stroke-width="2" />
  <path d="M132 192H380" stroke="white" stroke-opacity="0.08" stroke-width="2" />
  <path d="M132 248H380" stroke="white" stroke-opacity="0.08" stroke-width="2" />
  <path d="M132 304H380" stroke="white" stroke-opacity="0.08" stroke-width="2" />
  <path d="M132 360H380" stroke="white" stroke-opacity="0.08" stroke-width="2" />

  <rect x="98" y="112" width="316" height="290" rx="56" fill="url(#panel)" />
  <path d="M154 112H358C388.928 112 414 137.072 414 168V186H98V168C98 137.072 123.072 112 154 112Z" fill="#EAF2FC" />

  <circle cx="148" cy="149" r="10" fill="#21478A" fill-opacity="0.22" />
  <circle cx="180" cy="149" r="10" fill="#2B89D9" fill-opacity="0.32" />
  <circle cx="212" cy="149" r="10" fill="#21478A" fill-opacity="0.14" />

  <path d="M186 278L146 238L186 198" stroke="#21478A" stroke-width="26" stroke-linecap="round" stroke-linejoin="round" />
  <path d="M236 306L280 170" stroke="#2B89D9" stroke-width="24" stroke-linecap="round" />
  <path d="M300 308H360" stroke="#21478A" stroke-width="24" stroke-linecap="round" />

  <rect x="146" y="340" width="122" height="18" rx="9" fill="#D8E6F5" />
  <rect x="146" y="372" width="184" height="18" rx="9" fill="#EAF2FC" />

  <circle cx="360" cy="346" r="48" fill="url(#badge)" />
  <path d="M348 323L382 346L348 369V323Z" fill="white" />
</svg>
